<svg width="561" height="282" viewBox="0 0 561 282" fill="none" xmlns="http://www.w3.org/2000/svg">
<path d="M314.545 218.723H344.704V204.45H300.347V267.769H344.704V253.497H314.545V218.723Z" fill="#C4C4C4"/>
<path d="M346.23 267.769H360.442V204.45H346.23V267.769Z" fill="#C4C4C4"/>
<path d="M247.045 218.723H277.204V204.45H232.847V267.769H277.204V253.497H247.045V218.723Z" fill="#C4C4C4"/>
<path d="M278.729 267.769H292.942V204.45H278.729V267.769Z" fill="#C4C4C4"/>
<path d="M216.969 204.45H202.771C198.942 208.617 194.604 213.369 189.757 218.678H202.771V267.769H216.969V204.45Z" fill="#C4C4C4"/>
<path d="M428.836 127.643H458.996V113.371H414.639V176.69H458.996V162.417H428.836V127.643Z" fill="#C4C4C4"/>
<path d="M460.521 176.69H474.734V113.371H460.521V176.69Z" fill="#C4C4C4"/>
<path d="M361.336 152.145H391.495V137.871H361.336V113.371H347.138V176.69H361.336V152.145Z" fill="#C4C4C4"/>
<path d="M393.021 176.69H407.234V113.371H393.021V176.69Z" fill="#C4C4C4"/>
<path d="M339.733 176.689V155.047H325.521V162.417H295.376V176.689H339.733Z" fill="#C4C4C4"/>
<path d="M295.376 113.371V127.643H325.521V134.998H339.733V113.371H295.376Z" fill="#C4C4C4"/>
<path d="M293.836 113.371H279.638V176.69H293.836V113.371Z" fill="#C4C4C4"/>
<path d="M243.075 133.194C251.064 122.154 255.925 115.566 257.676 113.415H272.233L248.82 145.631L248.775 145.662V176.689H235.056V145.662L243.075 133.194Z" fill="#C4C4C4"/>
<path d="M241.55 133.194C233.636 122.154 228.789 115.566 227.038 113.415H212.482L234.667 143.947L241.55 133.194Z" fill="#C4C4C4"/>
<path d="M190.52 153.694V162.417H158.835V155.047H144.637V176.69H204.733V153.694H190.52Z" fill="#C4C4C4"/>
<path d="M204.733 152.145V137.871H158.835V127.643H190.52V134.998H204.733V113.371H144.637V152.145H204.733Z" fill="#C4C4C4"/>
<path d="M92.8752 113.371V127.643H123.02V137.871H92.8752V152.145H137.232V113.371H92.8752Z" fill="#C4C4C4"/>
<path d="M91.3347 113.371H77.1371V176.69H91.3347V113.371Z" fill="#C4C4C4"/>
<path d="M336.748 19.3398V33.6124H366.892V43.8401H336.748V58.1138H366.892V68.3862H336.748V82.6588H376.885C377.125 82.6588 378.531 81.8466 381.105 80.2372V53.4507C380.925 53.4507 379.519 52.548 376.885 50.7585C377.125 50.6082 378.531 49.7363 381.105 48.112V21.7167C380.925 21.7167 379.549 20.9194 376.976 19.3398H336.748Z" fill="#C4C4C4"/>
<path d="M335.207 19.3398H321.01V82.6588H335.207V19.3398Z" fill="#C4C4C4"/>
<path d="M267.707 33.6124H297.866V19.3398H253.509V82.6588H297.866V68.3862H267.707V33.6124Z" fill="#C4C4C4"/>
<path d="M299.392 82.6588H313.605V19.3398H299.392V82.6588Z" fill="#C4C4C4"/>
<path d="M186.503 51.8563C195.36 70.6565 200.326 80.929 201.404 82.6588H215.421C216.558 80.8394 222.033 69.5139 231.817 48.6833V82.6588H246.014V19.3398H231.817C230.411 21.5653 222.616 37.8843 208.42 68.2957C196.93 43.7655 189.629 28.409 186.503 22.1973V51.8563Z" fill="#C4C4C4"/>
<path d="M184.963 19.3398H170.765V82.6588H184.963V19.3398Z" fill="#C4C4C4"/>
</svg>
