<?xml version="1.0" encoding="UTF-8"?>
<!DOCTYPE svg PUBLIC "-//W3C//DTD SVG 1.1//EN" "http://www.w3.org/Graphics/SVG/1.1/DTD/svg11.dtd">
<!-- Creator: CorelDRAW 2017 -->
<svg xmlns="http://www.w3.org/2000/svg" xml:space="preserve" width="52.9166mm" height="26.4582mm" version="1.1" style="shape-rendering:geometricPrecision; text-rendering:geometricPrecision; image-rendering:optimizeQuality; fill-rule:evenodd; clip-rule:evenodd"
viewBox="0 0 5291.66 2645.82"
 xmlns:xlink="http://www.w3.org/1999/xlink">
 <defs>
  <style type="text/css">
   <![CDATA[
    .fil0 {fill:#2B2A29;fill-rule:nonzero}
   ]]>
  </style>
 </defs>
 <g id="Слой_x0020_1">
  <metadata id="CorelCorpID_0Corel-Layer"/>
  <polygon class="fil0" points="2966.96,2052.13 3251.44,2052.13 3251.44,1918.22 2833.04,1918.22 2833.04,2512.3 3251.44,2512.3 3251.44,2378.39 2966.96,2378.39 "/>
  <polygon class="fil0" points="3265.83,2512.3 3399.89,2512.3 3399.89,1918.22 3265.83,1918.22 "/>
  <polygon class="fil0" points="2330.26,2052.13 2614.74,2052.13 2614.74,1918.22 2196.34,1918.22 2196.34,2512.3 2614.74,2512.3 2614.74,2378.39 2330.26,2378.39 "/>
  <polygon class="fil0" points="2629.13,2512.3 2763.19,2512.3 2763.19,1918.22 2629.13,1918.22 "/>
  <path class="fil0" d="M2046.57 1918.22l-133.92 0c-36.12,39.09 -77.04,83.68 -122.76,133.49l122.76 0 0 460.59 133.92 0 0 -594.08z"/>
  <polygon class="fil0" points="4045.02,1197.59 4329.5,1197.59 4329.5,1063.68 3911.1,1063.68 3911.1,1657.76 4329.5,1657.76 4329.5,1523.85 4045.02,1523.85 "/>
  <polygon class="fil0" points="4343.89,1657.76 4477.95,1657.76 4477.95,1063.68 4343.89,1063.68 "/>
  <polygon class="fil0" points="3408.32,1427.47 3692.8,1427.47 3692.8,1293.55 3408.32,1293.55 3408.32,1063.68 3274.4,1063.68 3274.4,1657.76 3408.32,1657.76 "/>
  <polygon class="fil0" points="3707.19,1657.76 3841.25,1657.76 3841.25,1063.68 3707.19,1063.68 "/>
  <polygon class="fil0" points="3204.55,1657.76 3204.55,1454.7 3070.49,1454.7 3070.49,1523.85 2786.15,1523.85 2786.15,1657.76 "/>
  <polygon class="fil0" points="2786.15,1063.68 2786.15,1197.59 3070.49,1197.59 3070.49,1266.6 3204.55,1266.6 3204.55,1063.68 "/>
  <polygon class="fil0" points="2771.62,1063.68 2637.7,1063.68 2637.7,1657.76 2771.62,1657.76 "/>
  <path class="fil0" d="M2292.82 1249.67c75.35,-103.58 121.21,-165.39 137.72,-185.57l137.31 0 -220.84 302.26 -0.43 0.29 0 291.11 -129.4 0 0 -291.11 75.64 -116.98z"/>
  <path class="fil0" d="M2278.43 1249.67c-74.65,-103.58 -120.37,-165.39 -136.88,-185.57l-137.3 0 209.26 286.46 64.92 -100.89z"/>
  <polygon class="fil0" points="1797.09,1442 1797.09,1523.85 1498.22,1523.85 1498.22,1454.7 1364.3,1454.7 1364.3,1657.76 1931.15,1657.76 1931.15,1442 "/>
  <polygon class="fil0" points="1931.15,1427.47 1931.15,1293.55 1498.22,1293.55 1498.22,1197.59 1797.09,1197.59 1797.09,1266.6 1931.15,1266.6 1931.15,1063.68 1364.3,1063.68 1364.3,1427.47 "/>
  <polygon class="fil0" points="876.05,1063.68 876.05,1197.59 1160.39,1197.59 1160.39,1293.55 876.05,1293.55 876.05,1427.47 1294.45,1427.47 1294.45,1063.68 "/>
  <polygon class="fil0" points="861.52,1063.68 727.6,1063.68 727.6,1657.76 861.52,1657.76 "/>
  <path class="fil0" d="M3176.39 181.45l0 133.91 284.34 0 0 95.96 -284.34 0 0 133.92 284.34 0 0 96.38 -284.34 0 0 133.91 378.6 0c2.26,0 15.52,-7.62 39.8,-22.72l0 -251.32c-1.7,0 -14.96,-8.47 -39.8,-25.26 2.26,-1.41 15.52,-9.59 39.8,-24.83l0 -247.65c-1.7,0 -14.68,-7.48 -38.95,-22.3l-379.45 0z"/>
  <polygon class="fil0" points="3161.86,181.45 3027.94,181.45 3027.94,775.53 3161.86,775.53 "/>
  <polygon class="fil0" points="2525.16,315.36 2809.64,315.36 2809.64,181.45 2391.24,181.45 2391.24,775.53 2809.64,775.53 2809.64,641.62 2525.16,641.62 "/>
  <polygon class="fil0" points="2824.03,775.53 2958.09,775.53 2958.09,181.45 2824.03,181.45 "/>
  <path class="fil0" d="M1759.2 486.53c83.54,176.39 130.39,272.77 140.55,289l132.22 0c10.72,-17.07 62.37,-123.33 154.66,-318.77l0 318.77 133.91 0 0 -594.08 -133.91 0c-13.27,20.88 -86.79,173.99 -220.7,459.32 -108.38,-230.15 -177.24,-374.23 -206.73,-432.51l0 278.27z"/>
  <polygon class="fil0" points="1744.67,181.45 1610.75,181.45 1610.75,775.53 1744.67,775.53 "/>
 </g>
</svg>
