<svg width="554" height="110" viewBox="0 0 554 110" fill="none" xmlns="http://www.w3.org/2000/svg">
<g clip-path="url(#clip0)">
<path d="M127 20.8931C122.277 22.6875 117.245 23.8769 111.998 24.4544C117.396 21.6631 121.515 17.2769 123.452 11.99C118.42 14.5887 112.863 16.4244 106.942 17.4488C102.164 13.0419 95.3532 10.3125 87.9237 10.3125C73.5092 10.3125 61.9046 20.4463 61.9046 32.8694C61.9046 34.6569 62.0792 36.3756 62.5078 38.0119C40.8623 37.0975 21.7091 28.1119 8.84237 14.4238C6.59606 17.7994 5.27844 21.6631 5.27844 25.8225C5.27844 33.6325 9.92188 40.5556 16.8434 44.5637C12.6603 44.495 8.55662 43.4431 5.08 41.7863C5.08 41.855 5.08 41.9444 5.08 42.0337C5.08 52.9925 14.1049 62.095 25.9397 64.1919C23.8204 64.6937 21.5106 64.9344 19.1135 64.9344C17.4466 64.9344 15.7639 64.8519 14.1843 64.5494C17.5577 73.48 27.1304 80.0456 38.5128 80.2588C29.6545 86.2606 18.4071 89.8769 6.23094 89.8769C4.09575 89.8769 2.04787 89.7944 0 89.5675C11.5332 96.0094 25.2016 99.6875 39.9415 99.6875C87.8522 99.6875 114.046 65.3125 114.046 35.5162C114.046 34.5194 114.006 33.5569 113.951 32.6013C119.118 29.425 123.46 25.4581 127 20.8931Z" fill="black" fill-opacity="0.3"/>
</g>
<path d="M100.717 98.576C97.2289 98.576 94.0769 97.824 91.2609 96.32C88.4769 94.816 86.2849 92.752 84.6849 90.128C83.1169 87.472 82.3329 84.496 82.3329 81.2C82.3329 77.904 83.1169 74.944 84.6849 72.32C86.2849 69.664 88.4769 67.584 91.2609 66.08C94.0769 64.576 97.2289 63.824 100.717 63.824C104.205 63.824 107.341 64.576 110.125 66.08C112.909 67.584 115.101 69.664 116.701 72.32C118.301 74.944 119.101 77.904 119.101 81.2C119.101 84.496 118.301 87.472 116.701 90.128C115.101 92.752 112.909 94.816 110.125 96.32C107.341 97.824 104.205 98.576 100.717 98.576ZM100.717 91.952C102.701 91.952 104.493 91.504 106.093 90.608C107.693 89.68 108.941 88.4 109.837 86.768C110.765 85.136 111.229 83.28 111.229 81.2C111.229 79.12 110.765 77.264 109.837 75.632C108.941 74 107.693 72.736 106.093 71.84C104.493 70.912 102.701 70.448 100.717 70.448C98.7329 70.448 96.9409 70.912 95.3409 71.84C93.7409 72.736 92.4769 74 91.5489 75.632C90.6529 77.264 90.2049 79.12 90.2049 81.2C90.2049 83.28 90.6529 85.136 91.5489 86.768C92.4769 88.4 93.7409 89.68 95.3409 90.608C96.9409 91.504 98.7329 91.952 100.717 91.952ZM132.721 70.64V79.52H148.273V85.76H132.721V98H124.945V64.4H150.337V70.64H132.721ZM163.377 70.64V79.52H178.929V85.76H163.377V98H155.601V64.4H180.993V70.64H163.377ZM186.257 64.4H194.033V98H186.257V64.4ZM218.087 98.576C214.663 98.576 211.559 97.84 208.775 96.368C206.023 94.864 203.847 92.8 202.247 90.176C200.679 87.52 199.895 84.528 199.895 81.2C199.895 77.872 200.679 74.896 202.247 72.272C203.847 69.616 206.023 67.552 208.775 66.08C211.559 64.576 214.679 63.824 218.135 63.824C221.047 63.824 223.671 64.336 226.007 65.36C228.375 66.384 230.359 67.856 231.959 69.776L226.967 74.384C224.695 71.76 221.879 70.448 218.519 70.448C216.439 70.448 214.583 70.912 212.951 71.84C211.319 72.736 210.039 74 209.111 75.632C208.215 77.264 207.767 79.12 207.767 81.2C207.767 83.28 208.215 85.136 209.111 86.768C210.039 88.4 211.319 89.68 212.951 90.608C214.583 91.504 216.439 91.952 218.519 91.952C221.879 91.952 224.695 90.624 226.967 87.968L231.959 92.576C230.359 94.528 228.375 96.016 226.007 97.04C223.639 98.064 220.999 98.576 218.087 98.576ZM237.211 64.4H244.987V98H237.211V64.4ZM275.089 90.8H259.489L256.513 98H248.545L263.521 64.4H271.201L286.225 98H278.065L275.089 90.8ZM272.641 84.896L267.313 72.032L261.985 84.896H272.641ZM289.711 64.4H297.487V91.664H314.335V98H289.711V64.4ZM339.233 70.736H328.481V64.4H357.761V70.736H347.009V98H339.233V70.736ZM412.12 64.4L401.128 98H392.776L385.384 75.248L377.752 98H369.448L358.408 64.4H366.472L374.056 88.016L381.976 64.4H389.176L396.856 88.208L404.68 64.4H412.12ZM416.461 64.4H424.237V98H416.461V64.4ZM439.171 70.736H428.419V64.4H457.699V70.736H446.947V98H439.171V70.736ZM469.311 70.736H458.559V64.4H487.839V70.736H477.087V98H469.311V70.736ZM518.039 91.76V98H492.023V64.4H517.415V70.64H499.751V77.936H515.351V83.984H499.751V91.76H518.039ZM545.634 98L539.154 88.64H538.77H532.002V98H524.226V64.4H538.77C541.746 64.4 544.322 64.896 546.498 65.888C548.706 66.88 550.402 68.288 551.586 70.112C552.77 71.936 553.362 74.096 553.362 76.592C553.362 79.088 552.754 81.248 551.538 83.072C550.354 84.864 548.658 86.24 546.45 87.2L553.986 98H545.634ZM545.49 76.592C545.49 74.704 544.882 73.264 543.666 72.272C542.45 71.248 540.674 70.736 538.338 70.736H532.002V82.448H538.338C540.674 82.448 542.45 81.936 543.666 80.912C544.882 79.888 545.49 78.448 545.49 76.592Z" fill="#C4C4C4"/>
<defs>
<clipPath id="clip0">
<rect width="127" height="110" fill="white"/>
</clipPath>
</defs>
</svg>
